<svg width="16" height="16" viewBox="0 0 16 16" fill="none" xmlns="http://www.w3.org/2000/svg">
<path d="M12.8333 15.0833L7.375 9.625C7.06944 9.76389 6.75361 9.875 6.4275 9.95833C6.10083 10.0417 5.75694 10.0833 5.39583 10.0833C4.13194 10.0833 3.05222 9.63889 2.15667 8.75C1.26056 7.86111 0.8125 6.77778 0.8125 5.5C0.8125 5.13889 0.854167 4.79166 0.9375 4.45833C1.02083 4.125 1.13889 3.80555 1.29167 3.5L4.22917 6.41666L6.3125 4.33333L3.4375 1.41666C3.74306 1.26389 4.05556 1.14222 4.375 1.05166C4.69444 0.961664 5.03472 0.916664 5.39583 0.916664C6.67361 0.916664 7.75694 1.36111 8.64583 2.25C9.53472 3.13889 9.97917 4.22222 9.97917 5.5C9.97917 5.88889 9.94111 6.24305 9.865 6.5625C9.78833 6.88194 9.67361 7.1875 9.52083 7.47916L15 12.9375C15.125 13.0625 15.1875 13.2153 15.1875 13.3958C15.1875 13.5764 15.125 13.7292 15 13.8542L13.7292 15.125C13.6042 15.25 13.455 15.3056 13.2817 15.2917C13.1078 15.2778 12.9583 15.2083 12.8333 15.0833ZM13.2917 14.3542L14.25 13.3958L8.5 7.625C8.70833 7.33333 8.86806 7.00333 8.97917 6.635C9.09028 6.26722 9.14583 5.88889 9.14583 5.5C9.14583 4.48611 8.75361 3.57639 7.96917 2.77083C7.18417 1.96528 6.18056 1.63889 4.95833 1.79166L7.04167 3.875C7.16667 4 7.23278 4.14583 7.24 4.3125C7.24667 4.47916 7.1875 4.625 7.0625 4.75L4.6875 7.125C4.5625 7.25 4.40972 7.3125 4.22917 7.3125C4.04861 7.3125 3.90278 7.25 3.79167 7.125L1.6875 5.04166C1.57639 6.38889 1.92722 7.42722 2.74 8.15666C3.55222 8.88555 4.4375 9.25 5.39583 9.25C5.77083 9.25 6.1425 9.19777 6.51083 9.09333C6.87861 8.98944 7.21528 8.82639 7.52083 8.60416L13.2917 14.3542Z" fill="#4E4E4E"/>
</svg>
