<svg width="18" height="13" viewBox="0 0 18 13" fill="none" xmlns="http://www.w3.org/2000/svg">
<path d="M3.20817 12.125C3.08317 12.125 2.98262 12.0833 2.9065 12C2.82984 11.9167 2.7915 11.8194 2.7915 11.7083V10.875H2.33317C1.86095 10.875 1.46512 10.7153 1.14567 10.3958C0.826226 10.0764 0.666504 9.68055 0.666504 9.20833V5.04166C0.666504 4.5 0.843726 4.08694 1.19817 3.8025C1.55206 3.5175 1.93039 3.375 2.33317 3.375V2.02083C2.33317 1.54861 2.49289 1.15278 2.81234 0.833331C3.13178 0.513887 3.52762 0.354164 3.99984 0.354164H13.9998C14.4721 0.354164 14.8679 0.513887 15.1873 0.833331C15.5068 1.15278 15.6665 1.54861 15.6665 2.02083V3.375C16.1109 3.375 16.4998 3.52777 16.8332 3.83333C17.1665 4.13889 17.3332 4.54166 17.3332 5.04166V9.20833C17.3332 9.68055 17.1734 10.0764 16.854 10.3958C16.5346 10.7153 16.1387 10.875 15.6665 10.875H15.2082V11.7083C15.2082 11.8194 15.1771 11.9167 15.1148 12C15.0521 12.0833 14.9582 12.125 14.8332 12.125C14.7221 12.125 14.6248 12.0833 14.5415 12C14.4582 11.9167 14.4165 11.8194 14.4165 11.7083V10.875H3.62484V11.7083C3.62484 11.8194 3.58317 11.9167 3.49984 12C3.4165 12.0833 3.31928 12.125 3.20817 12.125ZM2.33317 10.0417H15.6665C15.9026 10.0417 16.1004 9.96166 16.2598 9.80166C16.4198 9.64222 16.4998 9.44444 16.4998 9.20833V5.04166C16.4998 4.80555 16.4198 4.6075 16.2598 4.4475C16.1004 4.28805 15.9026 4.20833 15.6665 4.20833C15.4304 4.20833 15.2326 4.28805 15.0732 4.4475C14.9132 4.6075 14.8332 4.80555 14.8332 5.04166V7.95833H3.1665V5.04166C3.1665 4.80555 3.08678 4.6075 2.92734 4.4475C2.76734 4.28805 2.56928 4.20833 2.33317 4.20833C2.09706 4.20833 1.89928 4.28805 1.73984 4.4475C1.57984 4.6075 1.49984 4.80555 1.49984 5.04166V9.20833C1.49984 9.44444 1.57984 9.64222 1.73984 9.80166C1.89928 9.96166 2.09706 10.0417 2.33317 10.0417ZM3.99984 7.125H13.9998V5.04166C13.9998 4.73611 14.0762 4.45833 14.229 4.20833C14.3818 3.95833 14.5832 3.76389 14.8332 3.625V2.02083C14.8332 1.78472 14.7532 1.58666 14.5932 1.42666C14.4337 1.26722 14.2359 1.1875 13.9998 1.1875H3.99984C3.76373 1.1875 3.56567 1.26722 3.40567 1.42666C3.24623 1.58666 3.1665 1.78472 3.1665 2.02083V3.625C3.4165 3.76389 3.61789 3.95833 3.77067 4.20833C3.92345 4.45833 3.99984 4.73611 3.99984 5.04166V7.125Z" fill="#4E4E4E"/>
</svg>
