<svg width="14" height="12" viewBox="0 0 14 12" fill="none" xmlns="http://www.w3.org/2000/svg">
<path d="M1.35433 10V11.25C1.35433 11.375 1.31627 11.4758 1.24016 11.5525C1.1635 11.6286 1.06266 11.6667 0.937663 11.6667H0.750163C0.625163 11.6667 0.524607 11.6286 0.448496 11.5525C0.371829 11.4758 0.333496 11.375 0.333496 11.25V5.125L1.97933 0.416667C2.021 0.277778 2.101 0.173611 2.21933 0.104167C2.33711 0.0347222 2.46544 0 2.60433 0H11.4585C11.5835 0 11.6979 0.0380556 11.8018 0.114167C11.9063 0.190833 11.9793 0.291667 12.021 0.416667L13.6668 5.125V11.25C13.6668 11.375 13.6288 11.4758 13.5527 11.5525C13.476 11.6286 13.3752 11.6667 13.2502 11.6667H13.0627C12.9377 11.6667 12.8371 11.6286 12.761 11.5525C12.6843 11.4758 12.646 11.375 12.646 11.25V10H1.35433ZM1.521 4.29167H12.4793L11.2502 0.833333H2.75016L1.521 4.29167ZM3.18766 8.08333C3.45155 8.08333 3.67377 7.99306 3.85433 7.8125C4.03489 7.63194 4.12516 7.40972 4.12516 7.14583C4.12516 6.88194 4.03155 6.65972 3.84433 6.47917C3.65655 6.29861 3.43766 6.20833 3.18766 6.20833C2.92377 6.20833 2.70155 6.30194 2.521 6.48917C2.34044 6.67694 2.25016 6.89583 2.25016 7.14583C2.25016 7.40972 2.34044 7.63194 2.521 7.8125C2.70155 7.99306 2.92377 8.08333 3.18766 8.08333ZM10.8127 8.08333C11.0766 8.08333 11.2988 7.99306 11.4793 7.8125C11.6599 7.63194 11.7502 7.40972 11.7502 7.14583C11.7502 6.88194 11.6599 6.65972 11.4793 6.47917C11.2988 6.29861 11.0766 6.20833 10.8127 6.20833C10.5488 6.20833 10.3266 6.30194 10.146 6.48917C9.96544 6.67694 9.87516 6.89583 9.87516 7.14583C9.87516 7.40972 9.96905 7.63194 10.1568 7.8125C10.3441 7.99306 10.5627 8.08333 10.8127 8.08333ZM1.16683 9.16667H12.8335V5.125H1.16683V9.16667Z" fill="#4E4E4E"/>
</svg>
