<svg width="18" height="18" viewBox="0 0 18 18" fill="none" xmlns="http://www.w3.org/2000/svg">
<path d="M2.1499 16H3.3999L12.6499 6.75L11.4249 5.5L2.1499 14.775V16ZM15.8499 5.65L12.4749 2.3L13.5749 1.2C13.9249 0.866663 14.3542 0.699997 14.8629 0.699997C15.3709 0.699997 15.7916 0.866663 16.1249 1.2L17.1499 2.225C17.4332 2.525 17.5832 2.879 17.5999 3.287C17.6166 3.69566 17.4749 4.04166 17.1749 4.325L15.8499 5.65ZM14.7749 6.75L4.0249 17.5H0.649902V14.125L11.3999 3.375L14.7749 6.75ZM12.0249 6.125L11.4249 5.5L12.6499 6.75L12.0249 6.125Z" fill="#439FD9"/>
</svg>
