<svg width="12" height="16" viewBox="0 0 12 16" fill="none" xmlns="http://www.w3.org/2000/svg">
<path d="M2.83317 4.66667V2.47917H3.6665V4.66667H2.83317ZM2.83317 11.4375V7.8125H3.6665V11.4375H2.83317ZM1.52067 15.5C1.14567 15.5 0.826226 15.3681 0.562337 15.1042C0.298448 14.8403 0.166504 14.5208 0.166504 14.1458V1.85417C0.166504 1.47917 0.298448 1.15972 0.562337 0.895833C0.826226 0.631944 1.14567 0.5 1.52067 0.5H10.479C10.854 0.5 11.1734 0.631944 11.4373 0.895833C11.7012 1.15972 11.8332 1.47917 11.8332 1.85417V14.1458C11.8332 14.5208 11.7012 14.8403 11.4373 15.1042C11.1734 15.3681 10.854 15.5 10.479 15.5H1.52067ZM1.52067 14.6667H10.479C10.6318 14.6667 10.7568 14.6181 10.854 14.5208C10.9512 14.4236 10.9998 14.2986 10.9998 14.1458V6.64583H0.999837V14.1458C0.999837 14.2986 1.04845 14.4236 1.14567 14.5208C1.24289 14.6181 1.36789 14.6667 1.52067 14.6667ZM0.999837 5.8125H10.9998V1.85417C10.9998 1.70139 10.9512 1.57639 10.854 1.47917C10.7568 1.38194 10.6318 1.33333 10.479 1.33333H1.52067C1.36789 1.33333 1.24289 1.38194 1.14567 1.47917C1.04845 1.57639 0.999837 1.70139 0.999837 1.85417V5.8125Z" fill="#4E4E4E"/>
</svg>
