<svg
    class="qodef-svg--quote"
    xmlns="http://www.w3.org/2000/svg"
    width="75.172"
    height="62.462"
    viewBox="0 0 75.172 62.462"
>
    <g transform="translate(-762.938 -1079.129)">
    <g transform="translate(763.438 1079.634)">
        <g>
        <path
            d="M808.7,1141.091H837.61v-27.657H824.424a1.159,1.159,0,0,1-1.149-1.17v-2.83c0-10.565,3.98-16.034,11.832-16.261v-13.538c-10.007.106-17.7,3.274-22.865,9.421-5.278,6.275-7.954,14.69-7.954,25.01A89.185,89.185,0,0,0,808.7,1141.091Zm-40.631,0h28.921v-27.657H783.574a1.159,1.159,0,0,1-1.15-1.17v-2.83c0-10.57,4.056-16.039,12.06-16.262v-13.537c-10.01.105-17.739,3.275-22.984,9.424-5.351,6.277-8.063,14.691-8.063,25.008A84.046,84.046,0,0,0,768.065,1141.091Z"
            transform="translate(-763.438 -1079.634)"
        />
        </g>
    </g>
    </g>
</svg>