<svg width="339" height="321" viewBox="0 0 339 321" fill="none" xmlns="http://www.w3.org/2000/svg">
<path d="M16.3159 311.836C16.3159 315.794 13.113 319 9.15795 319C5.20288 319 2 315.794 2 311.836C2 307.878 5.20288 304.673 9.15795 304.673C13.113 304.673 16.3159 307.878 16.3159 311.836Z" stroke="#439FD9" stroke-width="3.18" stroke-linecap="round" stroke-linejoin="round"/>
<path d="M54.9202 319C58.8734 319 62.0781 315.793 62.0781 311.836C62.0781 307.88 58.8734 304.673 54.9202 304.673C50.9669 304.673 47.7622 307.88 47.7622 311.836C47.7622 315.793 50.9669 319 54.9202 319Z" stroke="#439FD9" stroke-width="3.18" stroke-linecap="round" stroke-linejoin="round"/>
<path d="M100.682 319C104.636 319 107.84 315.793 107.84 311.836C107.84 307.88 104.636 304.673 100.682 304.673C96.7291 304.673 93.5244 307.88 93.5244 311.836C93.5244 315.793 96.7291 319 100.682 319Z" stroke="#439FD9" stroke-width="3.18" stroke-linecap="round" stroke-linejoin="round"/>
<path d="M146.445 319C150.398 319 153.603 315.793 153.603 311.836C153.603 307.88 150.398 304.673 146.445 304.673C142.492 304.673 139.287 307.88 139.287 311.836C139.287 315.793 142.492 319 146.445 319Z" stroke="#439FD9" stroke-width="3.18" stroke-linecap="round" stroke-linejoin="round"/>
<path d="M192.183 319C196.137 319 199.341 315.793 199.341 311.836C199.341 307.88 196.137 304.673 192.183 304.673C188.23 304.673 185.025 307.88 185.025 311.836C185.025 315.793 188.23 319 192.183 319Z" stroke="#439FD9" stroke-width="3.18" stroke-linecap="round" stroke-linejoin="round"/>
<path d="M237.946 319C241.899 319 245.103 315.793 245.103 311.836C245.103 307.88 241.899 304.673 237.946 304.673C233.992 304.673 230.788 307.88 230.788 311.836C230.788 315.793 233.992 319 237.946 319Z" stroke="#439FD9" stroke-width="3.18" stroke-linecap="round" stroke-linejoin="round"/>
<path d="M283.708 319C287.661 319 290.866 315.793 290.866 311.836C290.866 307.88 287.661 304.673 283.708 304.673C279.755 304.673 276.55 307.88 276.55 311.836C276.55 315.793 279.755 319 283.708 319Z" stroke="#439FD9" stroke-width="3.18" stroke-linecap="round" stroke-linejoin="round"/>
<path d="M336.604 311.836C336.604 315.794 333.401 319 329.446 319C325.491 319 322.288 315.794 322.288 311.836C322.288 307.878 325.491 304.673 329.446 304.673C333.401 304.673 336.604 307.878 336.604 311.836Z" stroke="#439FD9" stroke-width="3.18" stroke-linecap="round" stroke-linejoin="round"/>
<path d="M16.3159 268.614C16.3159 272.572 13.113 275.777 9.15795 275.777C5.20288 275.777 2 272.572 2 268.614C2 264.656 5.20288 261.45 9.15795 261.45C13.113 261.45 16.3159 264.656 16.3159 268.614Z" stroke="#439FD9" stroke-width="3.18" stroke-linecap="round" stroke-linejoin="round"/>
<path d="M54.9202 275.777C58.8734 275.777 62.0781 272.57 62.0781 268.614C62.0781 264.657 58.8734 261.45 54.9202 261.45C50.9669 261.45 47.7622 264.657 47.7622 268.614C47.7622 272.57 50.9669 275.777 54.9202 275.777Z" stroke="#439FD9" stroke-width="3.18" stroke-linecap="round" stroke-linejoin="round"/>
<path d="M100.682 275.777C104.636 275.777 107.84 272.57 107.84 268.614C107.84 264.657 104.636 261.45 100.682 261.45C96.7291 261.45 93.5244 264.657 93.5244 268.614C93.5244 272.57 96.7291 275.777 100.682 275.777Z" stroke="#439FD9" stroke-width="3.18" stroke-linecap="round" stroke-linejoin="round"/>
<path d="M146.445 275.777C150.398 275.777 153.603 272.57 153.603 268.614C153.603 264.657 150.398 261.45 146.445 261.45C142.492 261.45 139.287 264.657 139.287 268.614C139.287 272.57 142.492 275.777 146.445 275.777Z" stroke="#439FD9" stroke-width="3.18" stroke-linecap="round" stroke-linejoin="round"/>
<path d="M192.183 275.777C196.137 275.777 199.341 272.57 199.341 268.614C199.341 264.657 196.137 261.45 192.183 261.45C188.23 261.45 185.025 264.657 185.025 268.614C185.025 272.57 188.23 275.777 192.183 275.777Z" stroke="#439FD9" stroke-width="3.18" stroke-linecap="round" stroke-linejoin="round"/>
<path d="M237.946 275.777C241.899 275.777 245.103 272.57 245.103 268.614C245.103 264.657 241.899 261.45 237.946 261.45C233.992 261.45 230.788 264.657 230.788 268.614C230.788 272.57 233.992 275.777 237.946 275.777Z" stroke="#439FD9" stroke-width="3.18" stroke-linecap="round" stroke-linejoin="round"/>
<path d="M283.708 275.777C287.661 275.777 290.866 272.57 290.866 268.614C290.866 264.657 287.661 261.45 283.708 261.45C279.755 261.45 276.55 264.657 276.55 268.614C276.55 272.57 279.755 275.777 283.708 275.777Z" stroke="#439FD9" stroke-width="3.18" stroke-linecap="round" stroke-linejoin="round"/>
<path d="M336.604 268.614C336.604 272.572 333.401 275.777 329.446 275.777C325.491 275.777 322.288 272.572 322.288 268.614C322.288 264.656 325.491 261.45 329.446 261.45C333.401 261.45 336.604 264.656 336.604 268.614Z" stroke="#439FD9" stroke-width="3.18" stroke-linecap="round" stroke-linejoin="round"/>
<path d="M16.3159 225.389C16.3159 229.348 13.113 232.553 9.15795 232.553C5.20288 232.553 2 229.348 2 225.389C2 221.431 5.20288 218.226 9.15795 218.226C13.113 218.226 16.3159 221.431 16.3159 225.389Z" stroke="#439FD9" stroke-width="3.18" stroke-linecap="round" stroke-linejoin="round"/>
<path d="M54.9202 232.553C58.8734 232.553 62.0781 229.346 62.0781 225.389C62.0781 221.433 58.8734 218.226 54.9202 218.226C50.9669 218.226 47.7622 221.433 47.7622 225.389C47.7622 229.346 50.9669 232.553 54.9202 232.553Z" stroke="#439FD9" stroke-width="3.18" stroke-linecap="round" stroke-linejoin="round"/>
<path d="M100.682 232.553C104.636 232.553 107.84 229.346 107.84 225.389C107.84 221.433 104.636 218.226 100.682 218.226C96.7291 218.226 93.5244 221.433 93.5244 225.389C93.5244 229.346 96.7291 232.553 100.682 232.553Z" stroke="#439FD9" stroke-width="3.18" stroke-linecap="round" stroke-linejoin="round"/>
<path d="M146.445 232.553C150.398 232.553 153.603 229.346 153.603 225.389C153.603 221.433 150.398 218.226 146.445 218.226C142.492 218.226 139.287 221.433 139.287 225.389C139.287 229.346 142.492 232.553 146.445 232.553Z" stroke="#439FD9" stroke-width="3.18" stroke-linecap="round" stroke-linejoin="round"/>
<path d="M192.183 232.553C196.137 232.553 199.341 229.346 199.341 225.389C199.341 221.433 196.137 218.226 192.183 218.226C188.23 218.226 185.025 221.433 185.025 225.389C185.025 229.346 188.23 232.553 192.183 232.553Z" stroke="#439FD9" stroke-width="3.18" stroke-linecap="round" stroke-linejoin="round"/>
<path d="M237.946 232.553C241.899 232.553 245.103 229.346 245.103 225.389C245.103 221.433 241.899 218.226 237.946 218.226C233.992 218.226 230.788 221.433 230.788 225.389C230.788 229.346 233.992 232.553 237.946 232.553Z" stroke="#439FD9" stroke-width="3.18" stroke-linecap="round" stroke-linejoin="round"/>
<path d="M283.708 232.553C287.661 232.553 290.866 229.346 290.866 225.389C290.866 221.433 287.661 218.226 283.708 218.226C279.755 218.226 276.55 221.433 276.55 225.389C276.55 229.346 279.755 232.553 283.708 232.553Z" stroke="#439FD9" stroke-width="3.18" stroke-linecap="round" stroke-linejoin="round"/>
<path d="M336.604 225.389C336.604 229.348 333.401 232.553 329.446 232.553C325.491 232.553 322.288 229.348 322.288 225.389C322.288 221.431 325.491 218.226 329.446 218.226C333.401 218.226 336.604 221.431 336.604 225.389Z" stroke="#439FD9" stroke-width="3.18" stroke-linecap="round" stroke-linejoin="round"/>
<path d="M16.3159 182.191C16.3159 186.149 13.113 189.354 9.15795 189.354C5.20288 189.354 2 186.149 2 182.191C2 178.233 5.20288 175.027 9.15795 175.027C13.113 175.027 16.3159 178.233 16.3159 182.191Z" stroke="#439FD9" stroke-width="3.18" stroke-linecap="round" stroke-linejoin="round"/>
<path d="M62.0781 182.191C62.0781 186.149 58.8752 189.354 54.9202 189.354C50.9651 189.354 47.7622 186.149 47.7622 182.191C47.7622 178.233 50.9651 175.027 54.9202 175.027C58.8752 175.027 62.0781 178.233 62.0781 182.191Z" stroke="#439FD9" stroke-width="3.18" stroke-linecap="round" stroke-linejoin="round"/>
<path d="M107.84 182.191C107.84 186.149 104.637 189.354 100.682 189.354C96.7273 189.354 93.5244 186.149 93.5244 182.191C93.5244 178.233 96.7273 175.027 100.682 175.027C104.637 175.027 107.84 178.233 107.84 182.191Z" stroke="#439FD9" stroke-width="3.18" stroke-linecap="round" stroke-linejoin="round"/>
<path d="M153.579 182.191C153.579 186.149 150.376 189.354 146.421 189.354C142.466 189.354 139.263 186.149 139.263 182.191C139.263 178.233 142.466 175.027 146.421 175.027C150.376 175.027 153.579 178.233 153.579 182.191Z" stroke="#439FD9" stroke-width="3.18" stroke-linecap="round" stroke-linejoin="round"/>
<path d="M199.341 182.191C199.341 186.149 196.138 189.354 192.183 189.354C188.228 189.354 185.025 186.149 185.025 182.191C185.025 178.233 188.228 175.027 192.183 175.027C196.138 175.027 199.341 178.233 199.341 182.191Z" stroke="#439FD9" stroke-width="3.18" stroke-linecap="round" stroke-linejoin="round"/>
<path d="M245.103 182.191C245.103 186.149 241.901 189.354 237.946 189.354C233.99 189.354 230.788 186.149 230.788 182.191C230.788 178.233 233.99 175.027 237.946 175.027C241.901 175.027 245.103 178.233 245.103 182.191Z" stroke="#439FD9" stroke-width="3.18" stroke-linecap="round" stroke-linejoin="round"/>
<path d="M290.842 182.191C290.842 186.149 287.639 189.354 283.684 189.354C279.729 189.354 276.526 186.149 276.526 182.191C276.526 178.233 279.729 175.027 283.684 175.027C287.639 175.027 290.842 178.233 290.842 182.191Z" stroke="#439FD9" stroke-width="3.18" stroke-linecap="round" stroke-linejoin="round"/>
<path d="M336.604 182.191C336.604 186.149 333.401 189.354 329.446 189.354C325.491 189.354 322.288 186.149 322.288 182.191C322.288 178.233 325.491 175.027 329.446 175.027C333.401 175.027 336.604 178.233 336.604 182.191Z" stroke="#439FD9" stroke-width="3.18" stroke-linecap="round" stroke-linejoin="round"/>
<path d="M16.3159 138.969C16.3159 142.927 13.113 146.132 9.15795 146.132C5.20288 146.132 2 142.927 2 138.969C2 135.011 5.20288 131.806 9.15795 131.806C13.113 131.806 16.3159 135.011 16.3159 138.969Z" stroke="#439FD9" stroke-width="3.18" stroke-linecap="round" stroke-linejoin="round"/>
<path d="M62.0781 138.969C62.0781 142.927 58.8752 146.132 54.9202 146.132C50.9651 146.132 47.7622 142.927 47.7622 138.969C47.7622 135.011 50.9651 131.806 54.9202 131.806C58.8752 131.806 62.0781 135.011 62.0781 138.969Z" stroke="#439FD9" stroke-width="3.18" stroke-linecap="round" stroke-linejoin="round"/>
<path d="M107.84 138.969C107.84 142.927 104.637 146.132 100.682 146.132C96.7273 146.132 93.5244 142.927 93.5244 138.969C93.5244 135.011 96.7273 131.806 100.682 131.806C104.637 131.806 107.84 135.011 107.84 138.969Z" stroke="#439FD9" stroke-width="3.18" stroke-linecap="round" stroke-linejoin="round"/>
<path d="M153.579 138.969C153.579 142.927 150.376 146.132 146.421 146.132C142.466 146.132 139.263 142.927 139.263 138.969C139.263 135.011 142.466 131.806 146.421 131.806C150.376 131.806 153.579 135.011 153.579 138.969Z" stroke="#439FD9" stroke-width="3.18" stroke-linecap="round" stroke-linejoin="round"/>
<path d="M199.341 138.969C199.341 142.927 196.138 146.132 192.183 146.132C188.228 146.132 185.025 142.927 185.025 138.969C185.025 135.011 188.228 131.806 192.183 131.806C196.138 131.806 199.341 135.011 199.341 138.969Z" stroke="#439FD9" stroke-width="3.18" stroke-linecap="round" stroke-linejoin="round"/>
<path d="M245.103 138.969C245.103 142.927 241.901 146.132 237.946 146.132C233.99 146.132 230.788 142.927 230.788 138.969C230.788 135.011 233.99 131.806 237.946 131.806C241.901 131.806 245.103 135.011 245.103 138.969Z" stroke="#439FD9" stroke-width="3.18" stroke-linecap="round" stroke-linejoin="round"/>
<path d="M290.842 138.969C290.842 142.927 287.639 146.132 283.684 146.132C279.729 146.132 276.526 142.927 276.526 138.969C276.526 135.011 279.729 131.806 283.684 131.806C287.639 131.806 290.842 135.011 290.842 138.969Z" stroke="#439FD9" stroke-width="3.18" stroke-linecap="round" stroke-linejoin="round"/>
<path d="M336.604 138.969C336.604 142.927 333.401 146.132 329.446 146.132C325.491 146.132 322.288 142.927 322.288 138.969C322.288 135.011 325.491 131.806 329.446 131.806C333.401 131.806 336.604 135.011 336.604 138.969Z" stroke="#439FD9" stroke-width="3.18" stroke-linecap="round" stroke-linejoin="round"/>
<path d="M16.3159 95.7454C16.3159 99.7035 13.113 102.909 9.15795 102.909C5.20288 102.909 2 99.7035 2 95.7454C2 91.7874 5.20288 88.582 9.15795 88.582C13.113 88.582 16.3159 91.7874 16.3159 95.7454Z" stroke="#439FD9" stroke-width="3.18" stroke-linecap="round" stroke-linejoin="round"/>
<path d="M62.0781 95.7454C62.0781 99.7035 58.8752 102.909 54.9202 102.909C50.9651 102.909 47.7622 99.7035 47.7622 95.7454C47.7622 91.7874 50.9651 88.582 54.9202 88.582C58.8752 88.582 62.0781 91.7874 62.0781 95.7454Z" stroke="#439FD9" stroke-width="3.18" stroke-linecap="round" stroke-linejoin="round"/>
<path d="M107.84 95.7454C107.84 99.7035 104.637 102.909 100.682 102.909C96.7273 102.909 93.5244 99.7035 93.5244 95.7454C93.5244 91.7874 96.7273 88.582 100.682 88.582C104.637 88.582 107.84 91.7874 107.84 95.7454Z" stroke="#439FD9" stroke-width="3.18" stroke-linecap="round" stroke-linejoin="round"/>
<path d="M153.579 95.7454C153.579 99.7035 150.376 102.909 146.421 102.909C142.466 102.909 139.263 99.7035 139.263 95.7454C139.263 91.7874 142.466 88.582 146.421 88.582C150.376 88.582 153.579 91.7874 153.579 95.7454Z" stroke="#439FD9" stroke-width="3.18" stroke-linecap="round" stroke-linejoin="round"/>
<path d="M199.341 95.7454C199.341 99.7035 196.138 102.909 192.183 102.909C188.228 102.909 185.025 99.7035 185.025 95.7454C185.025 91.7874 188.228 88.582 192.183 88.582C196.138 88.582 199.341 91.7874 199.341 95.7454Z" stroke="#439FD9" stroke-width="3.18" stroke-linecap="round" stroke-linejoin="round"/>
<path d="M245.103 95.7454C245.103 99.7035 241.901 102.909 237.946 102.909C233.99 102.909 230.788 99.7035 230.788 95.7454C230.788 91.7874 233.99 88.582 237.946 88.582C241.901 88.582 245.103 91.7874 245.103 95.7454Z" stroke="#439FD9" stroke-width="3.18" stroke-linecap="round" stroke-linejoin="round"/>
<path d="M290.842 95.7454C290.842 99.7035 287.639 102.909 283.684 102.909C279.729 102.909 276.526 99.7035 276.526 95.7454C276.526 91.7874 279.729 88.582 283.684 88.582C287.639 88.582 290.842 91.7874 290.842 95.7454Z" stroke="#439FD9" stroke-width="3.18" stroke-linecap="round" stroke-linejoin="round"/>
<path d="M336.604 95.7454C336.604 99.7035 333.401 102.909 329.446 102.909C325.491 102.909 322.288 99.7035 322.288 95.7454C322.288 91.7874 325.491 88.582 329.446 88.582C333.401 88.582 336.604 91.7874 336.604 95.7454Z" stroke="#439FD9" stroke-width="3.18" stroke-linecap="round" stroke-linejoin="round"/>
<path d="M16.3159 52.5213C16.3159 56.4794 13.113 59.6847 9.15795 59.6847C5.20288 59.6847 2 56.4794 2 52.5213C2 48.5632 5.20288 45.3579 9.15795 45.3579C13.113 45.3579 16.3159 48.5632 16.3159 52.5213Z" stroke="#439FD9" stroke-width="3.18" stroke-linecap="round" stroke-linejoin="round"/>
<path d="M54.9202 59.6847C58.8734 59.6847 62.0781 56.4776 62.0781 52.5213C62.0781 48.5651 58.8734 45.3579 54.9202 45.3579C50.9669 45.3579 47.7622 48.5651 47.7622 52.5213C47.7622 56.4776 50.9669 59.6847 54.9202 59.6847Z" stroke="#439FD9" stroke-width="3.18" stroke-linecap="round" stroke-linejoin="round"/>
<path d="M100.682 59.6847C104.636 59.6847 107.84 56.4776 107.84 52.5213C107.84 48.5651 104.636 45.3579 100.682 45.3579C96.7291 45.3579 93.5244 48.5651 93.5244 52.5213C93.5244 56.4776 96.7291 59.6847 100.682 59.6847Z" stroke="#439FD9" stroke-width="3.18" stroke-linecap="round" stroke-linejoin="round"/>
<path d="M146.445 59.6847C150.398 59.6847 153.603 56.4776 153.603 52.5213C153.603 48.5651 150.398 45.3579 146.445 45.3579C142.492 45.3579 139.287 48.5651 139.287 52.5213C139.287 56.4776 142.492 59.6847 146.445 59.6847Z" stroke="#439FD9" stroke-width="3.18" stroke-linecap="round" stroke-linejoin="round"/>
<path d="M192.183 59.6847C196.137 59.6847 199.341 56.4776 199.341 52.5213C199.341 48.5651 196.137 45.3579 192.183 45.3579C188.23 45.3579 185.025 48.5651 185.025 52.5213C185.025 56.4776 188.23 59.6847 192.183 59.6847Z" stroke="#439FD9" stroke-width="3.18" stroke-linecap="round" stroke-linejoin="round"/>
<path d="M237.946 59.6847C241.899 59.6847 245.103 56.4776 245.103 52.5213C245.103 48.5651 241.899 45.3579 237.946 45.3579C233.992 45.3579 230.788 48.5651 230.788 52.5213C230.788 56.4776 233.992 59.6847 237.946 59.6847Z" stroke="#439FD9" stroke-width="3.18" stroke-linecap="round" stroke-linejoin="round"/>
<path d="M283.708 59.6847C287.661 59.6847 290.866 56.4776 290.866 52.5213C290.866 48.5651 287.661 45.3579 283.708 45.3579C279.755 45.3579 276.55 48.5651 276.55 52.5213C276.55 56.4776 279.755 59.6847 283.708 59.6847Z" stroke="#439FD9" stroke-width="3.18" stroke-linecap="round" stroke-linejoin="round"/>
<path d="M336.604 52.5213C336.604 56.4794 333.401 59.6847 329.446 59.6847C325.491 59.6847 322.288 56.4794 322.288 52.5213C322.288 48.5632 325.491 45.3579 329.446 45.3579C333.401 45.3579 336.604 48.5632 336.604 52.5213Z" stroke="#439FD9" stroke-width="3.18" stroke-linecap="round" stroke-linejoin="round"/>
<path d="M16.3165 9.32259C16.3165 13.2807 13.1137 16.486 9.15859 16.486C5.20352 16.486 2.0249 13.2564 2.0249 9.32259C2.0249 5.38879 5.22778 2.15918 9.18285 2.15918C13.1379 2.15918 16.3408 5.3645 16.3408 9.32259H16.3165Z" stroke="#439FD9" stroke-width="3.18" stroke-linecap="round" stroke-linejoin="round"/>
<path d="M54.9211 16.486C58.8744 16.486 62.0791 13.2788 62.0791 9.32259C62.0791 5.36635 58.8744 2.15918 54.9211 2.15918C50.9679 2.15918 47.7632 5.36635 47.7632 9.32259C47.7632 13.2788 50.9679 16.486 54.9211 16.486Z" stroke="#439FD9" stroke-width="3.18" stroke-linecap="round" stroke-linejoin="round"/>
<path d="M100.684 16.486C104.637 16.486 107.842 13.2788 107.842 9.32259C107.842 5.36635 104.637 2.15918 100.684 2.15918C96.7306 2.15918 93.5259 5.36635 93.5259 9.32259C93.5259 13.2788 96.7306 16.486 100.684 16.486Z" stroke="#439FD9" stroke-width="3.18" stroke-linecap="round" stroke-linejoin="round"/>
<path d="M146.446 16.486C150.399 16.486 153.604 13.2788 153.604 9.32259C153.604 5.36635 150.399 2.15918 146.446 2.15918C142.493 2.15918 139.288 5.36635 139.288 9.32259C139.288 13.2788 142.493 16.486 146.446 16.486Z" stroke="#439FD9" stroke-width="3.18" stroke-linecap="round" stroke-linejoin="round"/>
<path d="M192.183 16.486C196.137 16.486 199.341 13.2788 199.341 9.32259C199.341 5.36635 196.137 2.15918 192.183 2.15918C188.23 2.15918 185.025 5.36635 185.025 9.32259C185.025 13.2788 188.23 16.486 192.183 16.486Z" stroke="#439FD9" stroke-width="3.18" stroke-linecap="round" stroke-linejoin="round"/>
<path d="M237.946 16.486C241.899 16.486 245.103 13.2788 245.103 9.32259C245.103 5.36635 241.899 2.15918 237.946 2.15918C233.992 2.15918 230.788 5.36635 230.788 9.32259C230.788 13.2788 233.992 16.486 237.946 16.486Z" stroke="#439FD9" stroke-width="3.18" stroke-linecap="round" stroke-linejoin="round"/>
<path d="M283.709 16.486C287.662 16.486 290.867 13.2788 290.867 9.32259C290.867 5.36635 287.662 2.15918 283.709 2.15918C279.755 2.15918 276.551 5.36635 276.551 9.32259C276.551 13.2788 279.755 16.486 283.709 16.486Z" stroke="#439FD9" stroke-width="3.18" stroke-linecap="round" stroke-linejoin="round"/>
<path d="M336.604 9.32259C336.604 13.2807 333.401 16.486 329.446 16.486C325.491 16.486 322.288 13.2807 322.288 9.32259C322.288 5.3645 325.491 2.15918 329.446 2.15918C333.401 2.15918 336.604 5.3645 336.604 9.32259Z" stroke="#439FD9" stroke-width="3.18" stroke-linecap="round" stroke-linejoin="round"/>
</svg>
