<svg width="32" height="32" viewBox="0 0 32 32" fill="none" xmlns="http://www.w3.org/2000/svg">
<path d="M16 31.833C13.8053 31.833 11.7427 31.4163 9.81199 30.583C7.88199 29.7497 6.20166 28.618 4.77099 27.188C3.34033 25.7573 2.21533 24.0767 1.39599 22.146C0.576659 20.2153 0.166992 18.1527 0.166992 15.958C0.166992 13.764 0.576659 11.7087 1.39599 9.79199C2.21533 7.87533 3.34033 6.20166 4.77099 4.77099C6.20166 3.34033 7.88199 2.21533 9.81199 1.39599C11.7427 0.576659 13.8053 0.166992 16 0.166992C18.1947 0.166992 20.2573 0.576659 22.188 1.39599C24.118 2.21533 25.7983 3.34033 27.229 4.77099C28.6597 6.20166 29.7847 7.87533 30.604 9.79199C31.4233 11.7087 31.833 13.764 31.833 15.958C31.833 18.1527 31.4233 20.2153 30.604 22.146C29.7847 24.0767 28.6597 25.7573 27.229 27.188C25.7983 28.618 24.118 29.7497 22.188 30.583C20.2573 31.4163 18.1947 31.833 16 31.833ZM16 29.792C16.972 28.6527 17.7777 27.458 18.417 26.208C19.0557 24.958 19.5833 23.5277 20 21.917H12.042C12.4307 23.5277 12.9443 24.965 13.583 26.229C14.2223 27.493 15.028 28.6807 16 29.792ZM13.167 29.417C12.417 28.417 11.757 27.278 11.187 26C10.6177 24.722 10.1803 23.361 9.87499 21.917H3.54199C4.56933 23.917 5.86799 25.528 7.43799 26.75C9.00733 27.972 10.917 28.861 13.167 29.417ZM18.875 29.375C20.9583 28.9303 22.8333 28.0553 24.5 26.75C26.1667 25.4447 27.486 23.8337 28.458 21.917H22.167C21.7777 23.361 21.2983 24.722 20.729 26C20.1597 27.278 19.5417 28.403 18.875 29.375ZM2.79199 19.792H9.45799C9.34733 19.0973 9.27799 18.4373 9.24999 17.812C9.22199 17.1873 9.20799 16.5693 9.20799 15.958C9.20799 15.3193 9.22899 14.6943 9.27099 14.083C9.31233 13.4723 9.38866 12.8337 9.49999 12.167H2.79199C2.59733 12.7777 2.45833 13.3887 2.37499 14C2.29166 14.6113 2.24999 15.264 2.24999 15.958C2.24999 16.6527 2.29166 17.3127 2.37499 17.938C2.45833 18.5627 2.59733 19.1807 2.79199 19.792ZM11.583 19.792H20.417C20.5277 19.042 20.604 18.3683 20.646 17.771C20.6873 17.1737 20.708 16.5693 20.708 15.958C20.708 15.3473 20.6873 14.7573 20.646 14.188C20.604 13.618 20.5277 12.9443 20.417 12.167H11.583C11.4723 12.9443 11.396 13.618 11.354 14.188C11.3127 14.7573 11.292 15.3473 11.292 15.958C11.292 16.5693 11.3127 17.1737 11.354 17.771C11.396 18.3683 11.4723 19.042 11.583 19.792ZM22.5 19.792H29.208C29.4027 19.1807 29.5417 18.5627 29.625 17.938C29.7083 17.3127 29.75 16.6527 29.75 15.958C29.75 15.264 29.7083 14.6113 29.625 14C29.5417 13.3887 29.4027 12.7777 29.208 12.167H22.542C22.6527 13.0003 22.729 13.7087 22.771 14.292C22.8123 14.8753 22.833 15.4307 22.833 15.958C22.833 16.5693 22.8053 17.1737 22.75 17.771C22.6947 18.3683 22.6113 19.042 22.5 19.792ZM22.125 10.083H28.458C27.486 8.08299 26.1807 6.43733 24.542 5.14599C22.9027 3.85399 20.9997 2.99966 18.833 2.58299C19.583 3.61099 20.229 4.74999 20.771 5.99999C21.3123 7.24999 21.7637 8.61099 22.125 10.083ZM12.042 10.083H20C19.6387 8.58299 19.118 7.17333 18.438 5.85399C17.7573 4.53466 16.9447 3.33333 16 2.24999C15.1113 3.16666 14.3473 4.24999 13.708 5.49999C13.0693 6.74999 12.514 8.27766 12.042 10.083ZM3.54199 10.083H9.87499C10.2083 8.63899 10.646 7.29899 11.188 6.06299C11.7293 4.82633 12.375 3.66633 13.125 2.58299C10.9583 3.02766 9.06266 3.88899 7.43799 5.16699C5.81266 6.44433 4.51399 8.08299 3.54199 10.083Z" fill="#439FD9"/>
</svg>
