<svg width="56" height="71" viewBox="0 0 56 71" fill="none" xmlns="http://www.w3.org/2000/svg">
<path d="M55.4908 3.95368C54.6731 3.95368 54.0102 3.29247 54.0102 2.47684C54.0102 1.6612 54.6731 1 55.4908 1C56.3085 1 56.9714 1.6612 56.9714 2.47684C56.9714 3.29247 56.3085 3.95368 55.4908 3.95368Z" stroke="#BCBCBC" stroke-width="0.5" stroke-linecap="round" stroke-linejoin="round"/>
<path d="M55.4908 13.3843C56.3052 13.3843 56.9714 12.7198 56.9714 11.9075C56.9714 11.0952 56.3052 10.4307 55.4908 10.4307C54.6765 10.4307 54.0102 11.0952 54.0102 11.9075C54.0102 12.7198 54.6765 13.3843 55.4908 13.3843Z" stroke="#BCBCBC" stroke-width="0.5" stroke-linecap="round" stroke-linejoin="round"/>
<path d="M55.4908 22.8253C54.6731 22.8253 54.0102 22.1641 54.0102 21.3484C54.0102 20.5328 54.6731 19.8716 55.4908 19.8716C56.3085 19.8716 56.9714 20.5328 56.9714 21.3484C56.9714 22.1641 56.3085 22.8253 55.4908 22.8253Z" stroke="#BCBCBC" stroke-width="0.5" stroke-linecap="round" stroke-linejoin="round"/>
<path d="M55.4908 32.2559C54.6731 32.2559 54.0102 31.5947 54.0102 30.7791C54.0102 29.9634 54.6731 29.3022 55.4908 29.3022C56.3085 29.3022 56.9714 29.9634 56.9714 30.7791C56.9714 31.5947 56.3085 32.2559 55.4908 32.2559Z" stroke="#BCBCBC" stroke-width="0.5" stroke-linecap="round" stroke-linejoin="round"/>
<path d="M55.4908 41.6871C54.6731 41.6871 54.0102 41.0259 54.0102 40.2102C54.0102 39.3946 54.6731 38.7334 55.4908 38.7334C56.3085 38.7334 56.9714 39.3946 56.9714 40.2102C56.9714 41.0259 56.3085 41.6871 55.4908 41.6871Z" stroke="#BCBCBC" stroke-width="0.5" stroke-linecap="round" stroke-linejoin="round"/>
<path d="M55.4908 51.128C54.6731 51.128 54.0102 50.4668 54.0102 49.6512C54.0102 48.8355 54.6731 48.1743 55.4908 48.1743C56.3085 48.1743 56.9714 48.8355 56.9714 49.6512C56.9714 50.4668 56.3085 51.128 55.4908 51.128Z" stroke="#BCBCBC" stroke-width="0.5" stroke-linecap="round" stroke-linejoin="round"/>
<path d="M55.4908 60.5587C56.3052 60.5587 56.9714 59.8941 56.9714 59.0818C56.9714 58.2696 56.3052 57.605 55.4908 57.605C54.6765 57.605 54.0102 58.2696 54.0102 59.0818C54.0102 59.8941 54.6765 60.5587 55.4908 60.5587Z" stroke="#BCBCBC" stroke-width="0.5" stroke-linecap="round" stroke-linejoin="round"/>
<path d="M46.565 3.95368C45.7473 3.95368 45.0844 3.29247 45.0844 2.47684C45.0844 1.6612 45.7473 1 46.565 1C47.3828 1 48.0457 1.6612 48.0457 2.47684C48.0457 3.29247 47.3828 3.95368 46.565 3.95368Z" stroke="#BCBCBC" stroke-width="0.5" stroke-linecap="round" stroke-linejoin="round"/>
<path d="M46.565 13.3843C47.3794 13.3843 48.0457 12.7198 48.0457 11.9075C48.0457 11.0952 47.3794 10.4307 46.565 10.4307C45.7507 10.4307 45.0844 11.0952 45.0844 11.9075C45.0844 12.7198 45.7507 13.3843 46.565 13.3843Z" stroke="#BCBCBC" stroke-width="0.5" stroke-linecap="round" stroke-linejoin="round"/>
<path d="M46.565 22.8253C45.7473 22.8253 45.0844 22.1641 45.0844 21.3484C45.0844 20.5328 45.7473 19.8716 46.565 19.8716C47.3828 19.8716 48.0457 20.5328 48.0457 21.3484C48.0457 22.1641 47.3828 22.8253 46.565 22.8253Z" stroke="#BCBCBC" stroke-width="0.5" stroke-linecap="round" stroke-linejoin="round"/>
<path d="M46.565 32.2559C45.7473 32.2559 45.0844 31.5947 45.0844 30.7791C45.0844 29.9634 45.7473 29.3022 46.565 29.3022C47.3828 29.3022 48.0457 29.9634 48.0457 30.7791C48.0457 31.5947 47.3828 32.2559 46.565 32.2559Z" stroke="#BCBCBC" stroke-width="0.5" stroke-linecap="round" stroke-linejoin="round"/>
<path d="M46.565 41.6871C45.7473 41.6871 45.0844 41.0259 45.0844 40.2102C45.0844 39.3946 45.7473 38.7334 46.565 38.7334C47.3828 38.7334 48.0457 39.3946 48.0457 40.2102C48.0457 41.0259 47.3828 41.6871 46.565 41.6871Z" stroke="#BCBCBC" stroke-width="0.5" stroke-linecap="round" stroke-linejoin="round"/>
<path d="M46.565 51.128C45.7473 51.128 45.0844 50.4668 45.0844 49.6512C45.0844 48.8355 45.7473 48.1743 46.565 48.1743C47.3828 48.1743 48.0457 48.8355 48.0457 49.6512C48.0457 50.4668 47.3828 51.128 46.565 51.128Z" stroke="#BCBCBC" stroke-width="0.5" stroke-linecap="round" stroke-linejoin="round"/>
<path d="M37.639 3.95368C36.8213 3.95368 36.1584 3.29247 36.1584 2.47684C36.1584 1.6612 36.8213 1 37.639 1C38.4567 1 39.1196 1.6612 39.1196 2.47684C39.1196 3.29247 38.4567 3.95368 37.639 3.95368Z" stroke="#BCBCBC" stroke-width="0.5" stroke-linecap="round" stroke-linejoin="round"/>
<path d="M37.639 13.3843C38.4534 13.3843 39.1196 12.7198 39.1196 11.9075C39.1196 11.0952 38.4534 10.4307 37.639 10.4307C36.8247 10.4307 36.1584 11.0952 36.1584 11.9075C36.1584 12.7198 36.8247 13.3843 37.639 13.3843Z" stroke="#BCBCBC" stroke-width="0.5" stroke-linecap="round" stroke-linejoin="round"/>
<path d="M37.639 22.8253C36.8213 22.8253 36.1584 22.1641 36.1584 21.3484C36.1584 20.5328 36.8213 19.8716 37.639 19.8716C38.4567 19.8716 39.1196 20.5328 39.1196 21.3484C39.1196 22.1641 38.4567 22.8253 37.639 22.8253Z" stroke="#BCBCBC" stroke-width="0.5" stroke-linecap="round" stroke-linejoin="round"/>
<path d="M37.639 32.2559C36.8213 32.2559 36.1584 31.5947 36.1584 30.7791C36.1584 29.9634 36.8213 29.3022 37.639 29.3022C38.4567 29.3022 39.1196 29.9634 39.1196 30.7791C39.1196 31.5947 38.4567 32.2559 37.639 32.2559Z" stroke="#BCBCBC" stroke-width="0.5" stroke-linecap="round" stroke-linejoin="round"/>
<path d="M37.639 41.6871C36.8213 41.6871 36.1584 41.0259 36.1584 40.2102C36.1584 39.3946 36.8213 38.7334 37.639 38.7334C38.4567 38.7334 39.1196 39.3946 39.1196 40.2102C39.1196 41.0259 38.4567 41.6871 37.639 41.6871Z" stroke="#BCBCBC" stroke-width="0.5" stroke-linecap="round" stroke-linejoin="round"/>
<path d="M28.713 3.95368C27.8953 3.95368 27.2324 3.29247 27.2324 2.47684C27.2324 1.6612 27.8953 1 28.713 1C29.5307 1 30.1936 1.6612 30.1936 2.47684C30.1936 3.29247 29.5307 3.95368 28.713 3.95368Z" stroke="#BCBCBC" stroke-width="0.5" stroke-linecap="round" stroke-linejoin="round"/>
<path d="M28.713 13.3843C29.5273 13.3843 30.1936 12.7198 30.1936 11.9075C30.1936 11.0952 29.5273 10.4307 28.713 10.4307C27.8987 10.4307 27.2324 11.0952 27.2324 11.9075C27.2324 12.7198 27.8987 13.3843 28.713 13.3843Z" stroke="#BCBCBC" stroke-width="0.5" stroke-linecap="round" stroke-linejoin="round"/>
<path d="M28.713 22.8253C27.8953 22.8253 27.2324 22.1641 27.2324 21.3484C27.2324 20.5328 27.8953 19.8716 28.713 19.8716C29.5307 19.8716 30.1936 20.5328 30.1936 21.3484C30.1936 22.1641 29.5307 22.8253 28.713 22.8253Z" stroke="#BCBCBC" stroke-width="0.5" stroke-linecap="round" stroke-linejoin="round"/>
<path d="M28.713 32.2559C27.8953 32.2559 27.2324 31.5947 27.2324 30.7791C27.2324 29.9634 27.8953 29.3022 28.713 29.3022C29.5307 29.3022 30.1936 29.9634 30.1936 30.7791C30.1936 31.5947 29.5307 32.2559 28.713 32.2559Z" stroke="#BCBCBC" stroke-width="0.5" stroke-linecap="round" stroke-linejoin="round"/>
<path d="M19.7767 3.95368C20.5911 3.95368 21.2573 3.2891 21.2573 2.47684C21.2573 1.66458 20.5911 1 19.7767 1C18.9624 1 18.2961 1.66458 18.2961 2.47684C18.2961 3.2891 18.9624 3.95368 19.7767 3.95368Z" stroke="#BCBCBC" stroke-width="0.5" stroke-linecap="round" stroke-linejoin="round"/>
<path d="M19.7767 13.3843C20.5911 13.3843 21.2573 12.7198 21.2573 11.9075C21.2573 11.0952 20.5911 10.4307 19.7767 10.4307C18.9624 10.4307 18.2961 11.0952 18.2961 11.9075C18.2961 12.7198 18.9624 13.3843 19.7767 13.3843Z" stroke="#BCBCBC" stroke-width="0.5" stroke-linecap="round" stroke-linejoin="round"/>
<path d="M19.7767 22.8145C20.5911 22.8145 21.2573 22.1499 21.2573 21.3377C21.2573 20.5254 20.5911 19.8608 19.7767 19.8608C18.9624 19.8608 18.2961 20.5254 18.2961 21.3377C18.2961 22.1499 18.9624 22.8145 19.7767 22.8145Z" stroke="#BCBCBC" stroke-width="0.5" stroke-linecap="round" stroke-linejoin="round"/>
<path d="M10.8507 3.95368C11.665 3.95368 12.3313 3.2891 12.3313 2.47684C12.3313 1.66458 11.665 1 10.8507 1C10.0364 1 9.37009 1.66458 9.37009 2.47684C9.37009 3.2891 10.0364 3.95368 10.8507 3.95368Z" stroke="#BCBCBC" stroke-width="0.5" stroke-linecap="round" stroke-linejoin="round"/>
<path d="M10.8507 13.3843C11.665 13.3843 12.3313 12.7198 12.3313 11.9075C12.3313 11.0952 11.665 10.4307 10.8507 10.4307C10.0364 10.4307 9.37009 11.0952 9.37009 11.9075C9.37009 12.7198 10.0364 13.3843 10.8507 13.3843Z" stroke="#BCBCBC" stroke-width="0.5" stroke-linecap="round" stroke-linejoin="round"/>
<path d="M1.92467 3.95368C2.739 3.95368 3.40527 3.2891 3.40527 2.47684C3.40527 1.66458 2.739 1 1.92467 1C1.11033 1 0.444063 1.66458 0.444063 2.47684C0.444063 3.2891 1.11033 3.95368 1.92467 3.95368Z" stroke="#BCBCBC" stroke-width="0.5" stroke-linecap="round" stroke-linejoin="round"/>
</svg>
