<svg width="375" height="82" viewBox="0 0 375 82" fill="none" xmlns="http://www.w3.org/2000/svg">
<path d="M8.33781e-06 66.6428H5.32773C4.91791 66.3765 4.64468 65.981 4.64468 65.5323C4.64468 64.7336 5.4871 64.0795 6.52684 64.0795H6.54201C5.39602 63.22 -0.136596 58.5802 5.22147 52.8223C9.19828 48.5475 13.4028 46.0223 15.9452 44.8281C15.5809 44.676 15.3305 44.3109 15.3305 43.8925C15.3305 43.3297 15.7858 42.8733 16.3474 42.8733H17.4175L17.8349 33.434C17.8349 33.2362 17.9943 33.0689 18.1992 33.0689C18.4041 33.0689 18.5635 33.2362 18.5635 33.434L18.9809 42.8733H20.0434C20.605 42.8733 21.0604 43.3297 21.0604 43.8925C21.0604 44.3109 20.81 44.6684 20.4457 44.8281C22.9881 46.0299 27.1926 48.5475 31.1694 52.8223C36.5275 58.5878 30.9873 63.22 29.8489 64.0795H29.8716C30.9114 64.0795 31.7538 64.7336 31.7538 65.5323C31.7538 65.981 31.4881 66.3765 31.0707 66.6428H37.8177C38.4703 66.6428 38.994 67.0839 38.994 67.624V73.2298H40.6181V62.7484C40.6181 61.8889 41.2404 61.1967 42.007 61.1967H46.0673V49.2093C46.0673 49.0876 46.0824 48.9735 46.1052 48.8594C44.8605 48.6312 43.9422 47.8706 43.9422 46.9731C43.9422 45.893 45.2628 45.0106 46.8869 45.0106H49.4217C47.8735 43.8469 40.4208 37.5946 47.6383 29.8286C53.0039 24.0555 58.6731 20.6555 62.0959 19.043C61.6102 18.83 61.2687 18.3508 61.2687 17.7803C61.2687 17.0197 61.8834 16.4112 62.6348 16.4112H64.0691L64.6383 3.6784C64.6383 3.41218 64.8584 3.1916 65.1241 3.1916C65.3897 3.1916 65.6098 3.41218 65.6098 3.6784L66.179 16.4112H67.6134C68.3647 16.4112 68.9794 17.0273 68.9794 17.7803C68.9794 18.3432 68.6379 18.83 68.1522 19.043C71.575 20.6555 77.2442 24.0555 82.6175 29.8286C89.8349 37.5946 82.3822 43.8469 80.834 45.0106H83.3688C84.9929 45.0106 86.3135 45.893 86.3135 46.9731C86.3135 47.8706 85.3952 48.6312 84.1505 48.8594C84.1657 48.9735 84.1809 49.0876 84.1809 49.2093V61.1967H88.2412C89.0077 61.1967 89.63 61.8965 89.63 62.7484V73.2298H97.6367V57.7739H96.5894V56.8003H97.6367V41.4814H96.5894V40.5078H97.6367V23.2949H96.5894V22.3213H97.6367V18.8985H97.1966C97.1966 17.5674 98.1604 16.4721 99.4202 16.2515V14.9889H100.346V16.2515C101.606 16.4721 102.57 17.5674 102.57 18.8985H102.13V22.3213H103.177V23.2949H102.13V40.5154H103.177V41.489H102.13V56.8079H103.177V57.7815H102.13V73.2374H104.027V36.446H105.12V32.8787H104.657C104.657 31.4944 105.659 30.3458 106.979 30.1177V28.8018H107.943V30.1177C109.264 30.3458 110.265 31.4944 110.265 32.8787H109.802V36.446H110.888V37.4348H118.356C118.082 37.1686 117.915 36.8416 117.915 36.4689C117.915 35.5865 118.841 34.8715 119.987 34.8715H120.01C118.75 33.9284 112.656 28.817 118.553 22.481C122.932 17.7727 127.561 14.9965 130.354 13.6806C129.96 13.5133 129.679 13.1101 129.679 12.6537C129.679 12.0376 130.18 11.5356 130.795 11.5356H131.971L132.434 1.14552C132.434 0.924943 132.616 0.75 132.836 0.75C133.056 0.75 133.231 0.932549 133.231 1.14552L133.694 11.5356H134.862C135.477 11.5356 135.978 12.0376 135.978 12.6537C135.978 13.1177 135.697 13.5133 135.303 13.6806C138.103 14.9965 142.733 17.7727 147.112 22.481C153.009 28.8246 146.914 33.9284 145.654 34.8715H145.677C146.823 34.8715 147.749 35.5865 147.749 36.4689C147.749 36.834 147.582 37.161 147.309 37.4348H154.777V36.446H155.862V32.8787H155.407C155.407 31.4944 156.409 30.3458 157.729 30.1177V28.8018H158.693V30.1177C160.006 30.3458 161.015 31.4944 161.015 32.8787H160.552V36.446H161.645V73.2374H164.529V61.79H163.482V60.8164H164.529V45.4974H163.482V44.5238H164.529V27.3033H163.482V26.3374H164.529V22.9146H164.089C164.089 21.5835 165.053 20.4882 166.313 20.2676V19.005H167.239V20.2676C168.498 20.4882 169.462 21.5835 169.462 22.9146H169.022V26.3374H170.069V27.3033H169.022V44.5238H170.069V45.4974H169.022V60.8164H170.069V61.79H169.022V73.2374H179.473V55.9636H178.251V54.8227H179.473V36.8568H178.251V35.7158H179.473V15.5213H178.251V14.3804H179.473V10.3719H178.956C178.956 8.8126 180.087 7.52715 181.567 7.26854V5.79293H182.652V7.26854C184.132 7.52715 185.263 8.8126 185.263 10.3719H184.747V14.3804H185.969V15.5213H184.747V35.7158H185.969V36.8568H184.747V54.8227H185.969V55.9636H184.747V73.2374H193.004V58.4813H191.911V57.4697H193.004V41.489H191.911V40.4773H193.004V22.5038H191.911V21.4922H193.004V17.9249H192.541C192.541 16.5405 193.543 15.392 194.864 15.1638V13.8479H195.828V15.1638C197.148 15.392 198.15 16.5405 198.15 17.9249H197.687V21.4922H198.78V22.5038H197.687V40.4697H198.78V41.4814H197.687V57.462H198.78V58.4737H197.687V59.4625H202.817C202.347 57.7511 202.62 55.6518 204.745 53.3623C208.426 49.3994 212.319 47.0643 214.672 45.9538C214.338 45.8093 214.103 45.4746 214.103 45.0867C214.103 44.5695 214.528 44.1435 215.044 44.1435H216.03L216.417 35.404C216.417 35.2214 216.569 35.0693 216.751 35.0693C216.933 35.0693 217.085 35.2214 217.085 35.404L217.472 44.1435H218.459C218.975 44.1435 219.4 44.5619 219.4 45.0867C219.4 45.4746 219.165 45.8093 218.831 45.9538C221.183 47.0643 225.077 49.3918 228.758 53.3623C228.963 53.5829 229.152 53.8034 229.327 54.024V53.6513H230.025V43.9382H229.327V43.3221H230.025V32.4071H229.327V31.791H230.025V29.6232H229.729C229.729 28.779 230.374 28.0868 231.209 27.9423V27.1436H231.824V27.9423C232.666 28.0792 233.304 28.779 233.304 29.6232H233.008V31.791H233.706V32.4071H233.008V42.7972C233.228 41.6563 233.835 40.4241 235.034 39.1234C238.715 35.1606 242.608 32.8255 244.961 31.7226C244.627 31.578 244.392 31.2434 244.392 30.8555C244.392 30.3382 244.809 29.9123 245.333 29.9123H246.175L246.243 29.6232H246.327L246.699 21.1727C246.699 20.9902 246.851 20.8381 247.033 20.8381C247.215 20.8381 247.367 20.9902 247.367 21.1727L247.746 29.6309L247.814 29.9123H248.74C249.256 29.9123 249.681 30.3306 249.681 30.8555C249.681 31.2434 249.446 31.578 249.112 31.7226C251.465 32.8331 255.358 35.1682 259.039 39.1234C260.208 40.3785 260.815 41.5802 261.05 42.6831V32.3995H260.352V31.7834H261.05V29.6156H260.754C260.754 28.7713 261.392 28.0792 262.234 27.9347V27.136H262.849V27.9347C263.691 28.0716 264.329 28.7713 264.329 29.6156H264.033V31.7834H264.723V32.3995H264.033V43.3145H264.723V43.9306H264.033V53.6437H264.723V54.2598H264.033V57.7815C264.094 56.4428 264.678 54.9444 266.15 53.3623C269.831 49.3994 273.724 47.0643 276.077 45.9538C275.743 45.8093 275.508 45.4746 275.508 45.0867C275.508 44.5695 275.925 44.1435 276.449 44.1435H277.436L277.823 35.404C277.823 35.2214 277.974 35.0693 278.157 35.0693C278.339 35.0693 278.491 35.2214 278.491 35.404L278.885 44.1435H279.872C280.388 44.1435 280.813 44.5619 280.813 45.0867C280.813 45.4746 280.578 45.8093 280.244 45.9538C282.596 47.0643 286.49 49.3918 290.17 53.3623C292.303 55.6518 292.569 57.7511 292.098 59.4625H295.346V58.4737H294.254V57.462H295.346V41.4814H294.254V40.4697H295.346V22.5038H294.254V21.4922H295.346V17.9249H294.883C294.883 16.5405 295.885 15.392 297.206 15.1638V13.8479H298.17V15.1638C299.49 15.392 300.492 16.5405 300.492 17.9249H300.029V21.4922H301.114V22.5038H300.029V40.4697H301.114V41.4814H300.029V57.462H301.114V58.4737H300.029V73.2298H303.292V48.2737H322.592V26.5808H321.59C321.59 25.1964 322.592 24.0479 323.913 23.8197V22.5038H324.876V23.8197C326.189 24.0479 327.199 25.1964 327.199 26.5808H326.174V31.6921H347.682V26.5808H346.696C346.696 25.1964 347.698 24.0479 349.018 23.8197V22.5038H349.982V23.8197C351.303 24.0479 352.304 25.1964 352.304 26.5808H351.272V48.2737H370.648V73.2298H374.609V81.4141H0.0910766V78.6302H8.33781e-06V66.6428ZM9.88133 70.3546C9.85097 69.2517 9.06168 68.3618 8.09783 68.3618C7.13399 68.3618 6.33711 69.2517 6.31434 70.3546V73.2298H9.88891V70.3546H9.88133ZM19.9827 70.3546C19.9524 69.2517 19.1707 68.3618 18.1992 68.3618C17.2278 68.3618 16.4385 69.2517 16.4157 70.3546V73.2298H19.9903V70.3546H19.9827ZM30.0841 70.3546C30.0538 69.2517 29.2645 68.3618 28.3006 68.3618C27.3368 68.3618 26.5399 69.2517 26.5171 70.3546V73.2298H30.0917V70.3546H30.0841ZM47.7597 67.2437V73.2298H53.5807V67.2437C53.5352 65.6692 52.2526 64.4141 50.674 64.4141C49.0954 64.4141 47.8128 65.6768 47.7673 67.2437H47.7597ZM56.8669 53.2634C56.8213 51.5064 55.5691 50.0916 54.0285 50.0916C52.4878 50.0916 51.2356 51.5064 51.1901 53.2634V60.3296H56.8745V53.2634H56.8669ZM60.3048 64.4141C58.7262 64.4141 57.4437 65.6768 57.3981 67.2437V73.2298H63.2191V67.2437C63.1736 65.6692 61.891 64.4141 60.3124 64.4141H60.3048ZM67.9701 53.2634C67.9245 51.5064 66.6723 50.0916 65.1316 50.0916C63.591 50.0916 62.3388 51.5064 62.2932 53.2634V60.3296H67.9776V53.2634H67.9701ZM72.8576 67.2437C72.812 65.6692 71.5295 64.4141 69.9509 64.4141C68.3723 64.4141 67.0897 65.6768 67.0442 67.2437V73.2298H72.8652V67.2437H72.8576ZM79.0732 53.2634C79.0277 51.5064 77.7755 50.0916 76.2348 50.0916C74.6942 50.0916 73.442 51.5064 73.3964 53.2634V60.3296H79.0808V53.2634H79.0732ZM82.5036 67.2437C82.4581 65.6692 81.1755 64.4141 79.5969 64.4141C78.0183 64.4141 76.7357 65.6768 76.6902 67.2437V73.2298H82.5112V67.2437H82.5036ZM209.663 63.6231V63.6535H214.057V63.6231H209.663ZM214.057 69.381C213.685 68.3922 211.856 67.6544 211.856 67.6544C211.856 67.6544 210.035 68.3922 209.663 69.381C209.42 70.0123 209.488 71.9291 209.572 73.2298H214.156C214.232 71.9291 214.3 70.0123 214.065 69.381H214.057ZM219.423 63.6231V63.6535H223.817C223.817 63.6535 223.817 63.6383 223.817 63.6231H219.415H219.423ZM223.817 69.381C223.445 68.3922 221.624 67.6544 221.624 67.6544C221.624 67.6544 219.802 68.3922 219.423 69.381C219.18 70.0123 219.248 71.9291 219.332 73.2298H223.908C223.984 71.9291 224.052 70.0123 223.817 69.381ZM230.048 54.275H229.539C229.729 54.5336 229.896 54.7923 230.048 55.0433V54.275ZM233.038 44.7977V48.2205H234.283C234.283 47.9923 234.283 47.7717 234.298 47.5511C233.736 46.7905 233.235 45.8625 233.03 44.7977H233.038ZM255.419 57.5533C253.992 54.2902 247.071 51.841 247.071 51.841C247.071 51.841 240.149 54.2902 238.722 57.5533C237.561 60.2155 238.29 69.7689 238.601 73.2298H255.54C255.852 69.7689 256.58 60.2155 255.419 57.5533ZM261.096 44.8966C260.883 45.931 260.382 46.8437 259.836 47.5816C259.844 47.7945 259.851 48.0075 259.851 48.2281H261.096V44.8966ZM264.086 58.2531V59.4777H264.268V59.4549C264.169 59.0746 264.101 58.6714 264.086 58.2531ZM271.114 63.6307V63.6611H275.485C275.485 63.6611 275.485 63.6459 275.485 63.6307H271.114ZM275.485 69.3886C275.113 68.3998 273.299 67.662 273.299 67.662C273.299 67.662 271.486 68.3998 271.114 69.3886C270.871 70.0199 270.939 71.9367 271.023 73.2374H275.576C275.652 71.9367 275.72 70.0199 275.485 69.3886ZM280.82 63.6307V63.6611H285.192V63.6307H280.82ZM285.192 69.3886C284.82 68.3998 283.006 67.662 283.006 67.662C283.006 67.662 281.192 68.3998 280.82 69.3886C280.578 70.0199 280.646 71.9367 280.729 73.2374H285.283C285.359 71.9367 285.427 70.0199 285.192 69.3886ZM346.696 58.3976C346.696 58.3976 343.44 51.7346 336.989 51.2782C330.538 51.7346 327.282 58.3976 327.282 58.3976V73.2374H346.703V58.3976H346.696ZM142.52 58.3976C142.52 58.3976 139.264 51.7346 132.813 51.2782C126.362 51.7346 123.107 58.3976 123.107 58.3976V73.2374H142.528V58.3976H142.52Z" stroke="url(#paint0_linear_898_11139)" stroke-opacity="0.5" stroke-miterlimit="10" stroke-linejoin="round"/>
<defs>
<linearGradient id="paint0_linear_898_11139" x1="187.305" y1="0.75" x2="187.305" y2="81.4141" gradientUnits="userSpaceOnUse">
<stop stop-color="#439FD9"/>
<stop offset="1" stop-color="#439FD9" stop-opacity="0"/>
</linearGradient>
</defs>
</svg>
