<svg width="17" height="21" viewBox="0 0 17 21" fill="none" xmlns="http://www.w3.org/2000/svg">
<path d="M8.17839 9.96867C8.67285 9.96867 9.09501 9.79408 9.44489 9.44488C9.79408 9.09501 9.96867 8.67285 9.96867 8.17839C9.96867 7.68393 9.79408 7.26176 9.44489 6.91189C9.09501 6.5627 8.67285 6.38811 8.17839 6.38811C7.68393 6.38811 7.26177 6.5627 6.91189 6.91189C6.5627 7.26176 6.38811 7.68393 6.38811 8.17839C6.38811 8.67285 6.5627 9.09501 6.91189 9.44488C7.26177 9.79408 7.68393 9.96867 8.17839 9.96867ZM8.17839 18.204C10.2926 16.3284 11.8868 14.5337 12.961 12.8198C14.0352 11.1066 14.5723 9.62766 14.5723 8.38299C14.5723 6.43926 13.9543 4.85358 12.7185 3.62596C11.4821 2.39834 9.96867 1.78453 8.17839 1.78453C6.38811 1.78453 4.87472 2.39834 3.63824 3.62596C2.40243 4.85358 1.78453 6.43926 1.78453 8.38299C1.78453 9.62766 2.32161 11.1066 3.39578 12.8198C4.46995 14.5337 6.06415 16.3284 8.17839 18.204ZM8.17839 20.25C5.51854 17.9312 3.53218 15.7828 2.21931 13.805C0.906437 11.8272 0.25 10.0198 0.25 8.38299C0.25 5.9107 1.04727 3.93696 2.64182 2.46176C4.23568 0.987255 6.0812 0.25 8.17839 0.25C10.2756 0.25 12.1214 0.987255 13.716 2.46176C15.3098 3.93696 16.1068 5.9107 16.1068 8.38299C16.1068 10.0198 15.4503 11.8272 14.1375 13.805C12.8246 15.7828 10.8382 17.9312 8.17839 20.25Z" fill="white"/>
</svg>
